<svg xmlns="http://www.w3.org/2000/svg" xmlns:xlink="http://www.w3.org/1999/xlink" width="500" zoomAndPan="magnify" viewBox="0 0 375 374.999991" height="500" preserveAspectRatio="xMidYMid meet" version="1.0"><defs><g/></defs><path fill="#75c2f6" d="M 405.855469 72.394531 C 415.230469 74.835938 422.164062 78.046875 425.761719 81.898438 C 451.574219 110.414062 474.046875 157.292969 446.820312 218.558594 C 419.597656 279.691406 281.023438 322.589844 219.765625 325.289062 C 158.632812 327.984375 66.808594 319.125 66.808594 319.125 C 66.808594 319.125 43.046875 344.296875 29.433594 338.773438 C 26.996094 337.746094 24.8125 335.5625 23.140625 332.222656 L 22.757812 332.480469 C 17.363281 335.5625 7.730469 340.957031 1.4375 340.957031 C 0.152344 340.957031 -1.003906 340.699219 -2.285156 340.316406 C -10.121094 337.234375 -10.761719 326.058594 -10.890625 318.996094 C -10.890625 309.234375 -9.734375 298.957031 -8.449219 289.324219 C -7.421875 281.875 -6.140625 274.300781 -4.855469 266.847656 C -15.769531 259.144531 -25.402344 249.382812 -31.4375 237.308594 C -44.28125 211.621094 -53.144531 182.464844 -48.007812 153.566406 C -40.558594 112.210938 -7.421875 85.367188 28.40625 67.644531 C 50.242188 56.855469 77.339844 50.433594 101.226562 45.9375 C 131.917969 40.285156 163.511719 37.074219 194.71875 35.277344 C 215.652344 34.121094 236.714844 33.609375 257.648438 33.863281 C 276.785156 34.121094 295.921875 35.019531 314.929688 36.820312 C 335.347656 38.875 374.773438 43.753906 391.214844 56.726562 C 396.605469 61.222656 401.488281 66.617188 405.855469 72.394531 Z M 405.855469 72.394531 " fill-opacity="1" fill-rule="evenodd"/><path fill="#ff52a2" d="M -29.257812 276.226562 C -38.375 268.003906 -46.078125 258.5 -51.472656 247.582031 C -59.820312 230.886719 -66.371094 213.035156 -69.582031 194.667969 C -72.40625 178.613281 -72.535156 162.171875 -69.195312 146.117188 C -67.914062 140.082031 -60.335938 141.625 -61.492188 147.660156 C -68.296875 180.667969 -59.179688 214.574219 -44.410156 244.117188 C -39.015625 254.777344 -31.4375 264.023438 -22.320312 271.859375 L -20.652344 273.269531 L -21.035156 275.453125 C -21.679688 279.4375 -22.320312 283.417969 -22.835938 287.398438 C -24.117188 296.648438 -25.402344 306.023438 -25.53125 315.398438 C -25.789062 330.425781 -23.21875 348.277344 -7.421875 354.445312 C -1.644531 356.753906 -4.46875 363.949219 -10.25 361.765625 C -16.027344 359.453125 -20.90625 355.855469 -24.632812 350.847656 C -37.347656 333.894531 -33.367188 305.894531 -30.539062 286.242188 C -30.285156 282.902344 -29.898438 279.566406 -29.257812 276.226562 Z M 193.4375 12.542969 C 208.460938 11.644531 223.488281 11.261719 238.515625 11.132812 C 257.777344 11.003906 277.171875 11.386719 296.433594 12.542969 C 326.871094 14.472656 380.9375 19.609375 405.46875 39.003906 C 436.933594 63.917969 454.527344 112.855469 456.582031 152.027344 C 456.96875 158.191406 449.132812 158.578125 448.75 152.414062 C 446.820312 115.550781 430.253906 68.671875 400.589844 45.167969 C 363.34375 15.625 241.339844 17.683594 193.820312 20.378906 C 187.65625 20.765625 187.273438 12.929688 193.4375 12.542969 Z M 193.4375 12.542969 " fill-opacity="1" fill-rule="evenodd"/><path fill="#faf4d2" d="M 146.304688 300.886719 C 146.304688 300.886719 111.886719 299.601562 73.355469 290.738281 C 50.882812 306.921875 11.582031 334.152344 1.566406 334.152344 C -8.835938 334.152344 -1.644531 288.554688 3.109375 263.636719 C -9.09375 255.675781 -19.109375 245.914062 -25.019531 234.226562 C -55.582031 173.089844 -50.832031 114.652344 31.363281 73.808594 C 113.554688 32.964844 347.421875 31.039062 386.847656 62.25 C 426.273438 93.589844 459.664062 209.824219 369.894531 256.0625 C 280.125 302.296875 146.304688 300.886719 146.304688 300.886719 Z M 146.304688 300.886719 " fill-opacity="1" fill-rule="evenodd"/><path fill="#ffa41b" d="M 400.074219 255.933594 C 411.375 266.464844 451.445312 303.070312 459.664062 301.015625 C 469.167969 298.574219 471.867188 289.839844 464.800781 282.261719 C 457.609375 274.8125 408.421875 246.941406 404.441406 246.429688 C 394.808594 245.273438 393.910156 250.152344 400.074219 255.933594 Z M -42.355469 112.597656 C -42.355469 112.597656 -77.414062 65.332031 -88.972656 61.992188 C -100.53125 58.652344 -103.230469 75.605469 -81.527344 97.054688 C -59.820312 118.503906 -52.628906 122.871094 -46.851562 122.871094 C -41.070312 122.871094 -42.355469 112.597656 -42.355469 112.597656 Z M -31.824219 93.589844 C -31.824219 93.589844 -40.941406 36.175781 -48.132812 24.230469 C -55.328125 12.289062 -67.527344 21.148438 -69.195312 26.671875 C -70.867188 32.066406 -45.4375 96.027344 -38.246094 99.109375 C -31.183594 102.066406 -31.824219 93.589844 -31.824219 93.589844 Z M 422.550781 230.886719 C 441.683594 230.886719 499.605469 231.53125 502.429688 237.695312 C 505.769531 245.144531 503.074219 252.335938 499.992188 255.035156 C 497.292969 257.472656 431.539062 248.097656 416 242.832031 C 406.753906 239.75 412.660156 230.886719 422.550781 230.886719 Z M 422.550781 230.886719 " fill-opacity="1" fill-rule="evenodd"/><path stroke-linecap="butt" transform="matrix(2.739003, 0, 0, 2.739003, -453.833774, 49.019459)" fill="none" stroke-linejoin="miter" d="M 260.889043 24.621208 C 262.17401 24.551327 262.851435 23.829691 262.921317 22.457728 L 263.265021 10.238411 C 263.265021 9.605197 263.043966 9.068961 262.60471 8.628279 C 262.182567 8.189022 261.646332 7.969394 260.994578 7.969394 L 212.461014 8.944886 C 211.087625 9.016194 210.367415 9.736403 210.296107 11.109793 L 209.637223 27.445 C 209.637223 28.166636 209.892505 28.747082 210.401643 29.187764 C 210.895094 29.609907 211.501211 29.751097 212.222846 29.609907 L 227.160419 26.786115 L 226.501534 49.931224 C 226.712606 49.772921 226.932234 49.772921 227.160419 49.931224 L 227.160419 50.142296 C 227.160419 50.212177 227.081981 50.247831 226.923677 50.247831 L 226.501534 50.03676 L 226.077966 63.33853 L 226.184927 63.33853 C 226.184927 63.33853 226.166387 63.355644 226.130734 63.391298 C 226.096506 63.425526 226.077966 63.444066 226.077966 63.444066 L 225.630152 80.73052 L 225.630152 81.047127 C 225.630152 81.557692 225.841224 82.014062 226.263366 82.419091 C 226.702623 82.807006 227.213187 82.999537 227.793633 82.999537 L 242.494464 82.68293 C 243.866427 82.543167 244.552409 81.821531 244.552409 80.519449 L 244.657945 79.753603 L 244.552409 79.753603 C 244.341338 79.753603 244.12171 79.630953 243.893524 79.384228 C 243.682453 79.120389 243.576917 78.917874 243.576917 78.776685 L 243.893524 78.143471 C 244.12171 77.915286 244.235802 77.695657 244.235802 77.484586 C 244.235802 77.413278 244.12171 77.273515 243.893524 77.062444 C 243.682453 76.832832 243.576917 76.648858 243.576917 76.507668 C 243.576917 76.366479 243.682453 76.155407 243.893524 75.874454 C 243.893524 75.50508 243.85787 75.214143 243.787989 75.003072 C 243.716681 74.861883 243.682453 74.608027 243.682453 74.238652 C 243.682453 74.238652 243.752335 74.167344 243.893524 74.026154 C 243.98052 74.026154 244.041845 74.00904 244.077499 73.973387 C 244.113153 73.939159 244.16592 73.886391 244.235802 73.815083 C 243.936309 73.67532 243.787989 73.525573 243.787989 73.36727 C 243.646799 73.22608 243.576917 73.050663 243.576917 72.839591 C 244.016174 72.698402 244.235802 72.514427 244.235802 72.284816 C 244.235802 72.143627 244.051828 71.932555 243.682453 71.651602 C 243.682453 71.510413 243.902081 71.404877 244.341338 71.334995 C 244.76348 71.176692 244.869016 70.991291 244.657945 70.78022 L 244.341338 70.569149 C 244.130267 70.569149 243.946292 70.534921 243.787989 70.463613 C 243.787989 70.32385 243.866427 70.102795 244.024731 69.804728 L 244.235802 69.382586 L 244.235802 69.170088 L 243.893524 69.064553 C 243.752335 69.064553 243.646799 69.083093 243.576917 69.11732 C 243.50561 69.152974 243.435728 69.170088 243.365846 69.170088 C 243.224657 69.170088 243.153349 69.100207 243.153349 68.959017 L 243.153349 68.722275 L 243.260311 68.722275 C 243.260311 68.722275 243.277424 68.705161 243.313078 68.669507 C 243.347306 68.633853 243.365846 68.616739 243.365846 68.616739 C 243.50561 68.546857 243.725238 68.511204 244.024731 68.511204 C 244.30711 68.511204 244.482527 68.370014 244.552409 68.089061 L 244.869016 68.511204 L 244.974552 67.87799 L 244.341338 67.87799 C 243.971963 67.87799 243.866427 67.587053 244.024731 67.006607 C 244.16592 66.795536 244.16592 66.575908 244.024731 66.346297 L 243.787989 66.02969 L 243.682453 65.607547 C 243.682453 65.520551 243.796546 65.370805 244.024731 65.159734 C 244.235802 64.948662 244.341338 64.771819 244.341338 64.632055 L 244.130267 63.655137 L 243.787989 62.572684 L 243.893524 62.256077 L 244.024731 62.256077 L 244.235802 62.019335 L 244.235802 61.701302 C 244.235802 61.420349 244.12171 61.130839 243.893524 60.831346 L 244.446873 60.620274 C 244.588063 60.620274 244.729253 60.548967 244.869016 60.409203 L 245.21272 60.409203 L 245.318256 57.822154 L 245.21272 57.822154 C 245.142838 57.822154 244.887556 57.708061 244.446873 57.479876 C 244.657945 57.127615 244.948881 56.952197 245.318256 56.952197 L 246.162541 25.175984 Z M 218.503644 20.74206 L 218.503644 20.399782 L 219.138284 20.399782 L 219.138284 20.74206 Z M 228.004704 21.164203 L 228.004704 20.74206 L 228.55948 20.74206 L 228.55948 21.164203 Z M 215.91802 22.246656 C 215.618527 22.105467 215.257709 22.035585 214.835567 22.035585 C 214.607381 21.736092 214.677263 21.375274 215.046638 20.953131 L 215.679852 20.953131 L 216.340163 21.375274 L 216.340163 21.824514 Z M 225.841224 21.269738 C 225.841224 21.48081 225.80557 21.586345 225.735688 21.586345 L 225.524617 21.586345 L 225.419081 21.718978 L 224.996938 21.586345 L 224.996938 20.953131 L 225.841224 20.953131 Z M 210.190572 21.718978 L 210.190572 21.375274 L 211.140393 21.375274 L 211.140393 21.718978 Z M 218.927212 21.586345 L 218.503644 21.718978 C 218.36388 21.860168 218.292572 21.930049 218.292572 21.930049 C 217.923197 22.071239 217.853316 22.246656 218.081501 22.457728 C 217.783434 22.685913 217.56238 22.721567 217.422616 22.563263 C 217.351308 22.563263 217.237216 22.527609 217.078912 22.457728 C 216.937723 22.387846 216.832187 22.316538 216.762305 22.246656 C 216.920609 22.176774 217.140237 21.999931 217.422616 21.718978 C 217.633687 21.489367 217.923197 21.375274 218.292572 21.375274 L 218.503644 21.375274 Z M 215.152174 22.668799 L 215.152174 22.246656 L 216.551234 22.457728 Z M 219.138284 24.199066 C 218.644833 24.129184 218.380994 24.006534 218.34534 23.829691 C 218.311112 23.63716 218.433762 23.398991 218.714715 23.118038 L 218.927212 23.118038 L 219.138284 23.223574 L 219.586097 23.223574 L 219.586097 23.987994 Z M 227.582562 23.434645 C 227.582562 23.715598 227.477026 23.970881 227.265955 24.199066 C 226.967888 23.970881 226.818141 23.751252 226.818141 23.540181 L 227.160419 23.540181 Z M 215.574316 24.515673 L 215.574316 24.09353 L 216.234627 24.09353 L 216.234627 24.515673 Z M 223.043103 24.621208 C 222.973221 24.920701 222.612403 25.026237 221.962075 24.937815 C 221.820886 24.937815 221.71535 24.903588 221.645468 24.83228 L 221.301764 24.83228 C 221.160575 24.762398 220.949504 24.726744 220.668551 24.726744 C 220.879622 24.304601 221.169132 24.09353 221.539933 24.09353 C 221.679696 24.09353 222.181704 24.164838 223.043103 24.304601 Z M 228.981622 55.869744 L 228.770551 55.764208 L 229.087158 55.553137 L 229.325326 55.314969 L 229.536397 55.764208 L 228.981622 55.97528 Z M 241.200939 56.634164 C 241.05975 56.775354 240.954214 56.845236 240.884332 56.845236 C 240.884332 56.845236 240.867218 56.863776 240.831564 56.898003 C 240.79591 56.933657 240.778797 56.952197 240.778797 56.952197 L 240.540628 56.845236 L 240.540628 56.634164 Z M 229.536397 60.303667 C 229.536397 60.514739 229.456533 60.804249 229.298229 61.173623 C 229.15704 61.525884 229.017276 61.736956 228.876087 61.806837 C 229.017276 61.948027 229.087158 62.133427 229.087158 62.361613 C 229.017276 62.431494 228.998736 62.55557 229.03439 62.730987 C 229.070044 62.907831 229.087158 63.03048 229.087158 63.100362 C 229.087158 63.258666 229.167023 63.619484 229.325326 64.182816 L 229.641933 64.843127 C 229.641933 65.12408 229.456533 65.379362 229.087158 65.607547 L 229.325326 65.713083 C 229.325326 65.995462 229.34244 66.320626 229.378094 66.69 C 229.412322 67.042261 229.395208 67.358868 229.325326 67.639821 C 229.167023 68.080504 229.272558 68.370014 229.641933 68.511204 C 229.430862 68.810697 229.209807 68.959017 228.981622 68.959017 C 229.209807 69.170088 229.325326 69.27705 229.325326 69.27705 C 229.46509 69.27705 229.536397 69.346932 229.536397 69.488121 L 229.430862 69.593657 C 229.359554 69.663539 229.245461 69.699193 229.087158 69.699193 L 228.348408 69.593657 L 227.899169 69.382586 C 227.759405 69.382586 227.65387 69.346932 227.582562 69.27705 L 227.899169 65.713083 C 228.040358 65.132637 228.040358 64.807473 227.899169 64.737591 L 227.899169 63.971744 C 228.198662 63.619484 228.348408 63.29432 228.348408 62.994827 C 228.348408 62.924945 228.234316 62.783755 228.004704 62.572684 C 227.864941 62.502802 227.759405 62.397267 227.688097 62.256077 C 227.688097 62.167655 227.759405 62.053563 227.899169 61.913799 L 228.242873 61.595766 C 228.084569 61.456003 228.004704 61.314813 228.004704 61.173623 C 228.004704 61.01532 228.040358 60.936881 228.11024 60.936881 L 228.242873 60.620274 C 228.154451 60.479085 228.11024 60.268014 228.11024 59.987061 C 228.11024 59.476496 228.401176 58.790514 228.981622 57.927689 C 228.981622 58.349832 229.095715 58.526675 229.325326 58.455367 C 229.606279 58.526675 229.747469 58.676422 229.747469 58.904607 L 229.641933 59.32675 Z M 245.107184 62.361613 C 245.107184 62.431494 245.062974 62.467148 244.974552 62.467148 C 244.974552 62.467148 244.974552 62.502802 244.974552 62.572684 C 244.974552 62.642566 244.974552 62.67822 244.974552 62.67822 L 245.107184 62.67822 Z M 242.942277 66.557368 C 242.942277 66.715671 242.863839 66.83119 242.705535 66.901072 L 242.283393 66.795536 L 242.283393 66.451832 C 242.353274 66.52314 242.45881 66.557368 242.6 66.557368 Z M 229.192694 74.58093 C 228.840433 74.722119 228.734897 74.897537 228.876087 75.108608 C 228.876087 75.390987 228.770551 75.716151 228.55948 76.085526 L 228.004704 76.191061 C 227.65387 75.680497 227.477026 75.355333 227.477026 75.214143 C 227.337263 75.144262 227.265955 74.93319 227.265955 74.58093 C 227.265955 74.492508 227.337263 74.449723 227.477026 74.449723 C 227.618216 74.449723 227.582562 74.27288 227.37149 73.920619 C 227.442798 73.850737 227.477026 73.745201 227.477026 73.604012 L 227.582562 73.36727 L 227.688097 72.073745 C 227.688097 71.862673 227.65387 71.721484 227.582562 71.651602 C 227.51268 71.510413 227.477026 71.326438 227.477026 71.096827 C 227.407144 71.026945 227.477026 70.832988 227.688097 70.516381 C 227.899169 70.18266 228.120223 69.944492 228.348408 69.804728 C 228.41829 69.804728 228.471058 69.821842 228.506712 69.857496 C 228.542366 69.891724 228.595134 69.944492 228.665015 70.0158 L 228.981622 70.147006 Z M 229.192694 74.58093 " stroke="#e0feca" stroke-width="14.864162" stroke-opacity="1" stroke-miterlimit="4"/><g fill="#ffa41b" fill-opacity="1"><g transform="translate(123.325588, 276.356737)"><g><path d="M 137.390625 -159.890625 C 140.941406 -160.085938 142.816406 -162.0625 143.015625 -165.8125 L 143.90625 -199.265625 C 143.90625 -201.046875 143.3125 -202.523438 142.125 -203.703125 C 140.9375 -204.890625 139.457031 -205.484375 137.6875 -205.484375 L 4.734375 -202.828125 C 0.984375 -202.628906 -0.988281 -200.65625 -1.1875 -196.90625 L -2.953125 -152.1875 C -2.953125 -150.21875 -2.257812 -148.640625 -0.875 -147.453125 C 0.5 -146.265625 2.171875 -145.867188 4.140625 -146.265625 L 45 -153.96875 L 43.234375 -90.609375 C 43.828125 -91.003906 44.414062 -91.003906 45 -90.609375 L 45 -90.015625 C 45 -89.816406 44.800781 -89.71875 44.40625 -89.71875 L 43.234375 -90.3125 L 42.046875 -53.890625 L 42.34375 -53.890625 C 42.34375 -53.890625 42.289062 -53.835938 42.1875 -53.734375 C 42.09375 -53.640625 42.046875 -53.59375 42.046875 -53.59375 L 40.859375 -6.21875 L 40.859375 -5.328125 C 40.859375 -3.941406 41.445312 -2.707031 42.625 -1.625 C 43.8125 -0.539062 45.195312 0 46.78125 0 L 87.046875 -0.890625 C 90.796875 -1.285156 92.671875 -3.257812 92.671875 -6.8125 L 92.96875 -8.875 L 92.671875 -8.875 C 92.078125 -8.875 91.484375 -9.21875 90.890625 -9.90625 C 90.304688 -10.601562 90.015625 -11.148438 90.015625 -11.546875 L 90.90625 -13.328125 C 91.488281 -13.921875 91.78125 -14.507812 91.78125 -15.09375 C 91.78125 -15.289062 91.488281 -15.6875 90.90625 -16.28125 C 90.3125 -16.875 90.015625 -17.367188 90.015625 -17.765625 C 90.015625 -18.160156 90.3125 -18.753906 90.90625 -19.546875 C 90.90625 -20.523438 90.804688 -21.3125 90.609375 -21.90625 C 90.410156 -22.300781 90.3125 -22.992188 90.3125 -23.984375 C 90.3125 -23.984375 90.507812 -24.179688 90.90625 -24.578125 C 91.101562 -24.578125 91.25 -24.625 91.34375 -24.71875 C 91.445312 -24.820312 91.59375 -24.972656 91.78125 -25.171875 C 91 -25.566406 90.609375 -25.960938 90.609375 -26.359375 C 90.210938 -26.742188 90.015625 -27.234375 90.015625 -27.828125 C 91.191406 -28.222656 91.78125 -28.71875 91.78125 -29.3125 C 91.78125 -29.707031 91.289062 -30.300781 90.3125 -31.09375 C 90.3125 -31.488281 90.898438 -31.785156 92.078125 -31.984375 C 93.265625 -32.367188 93.5625 -32.859375 92.96875 -33.453125 L 92.078125 -34.046875 C 91.492188 -34.046875 91.003906 -34.144531 90.609375 -34.34375 C 90.609375 -34.738281 90.804688 -35.332031 91.203125 -36.125 L 91.78125 -37.3125 L 91.78125 -37.90625 L 90.90625 -38.203125 C 90.507812 -38.203125 90.210938 -38.148438 90.015625 -38.046875 C 89.816406 -37.953125 89.617188 -37.90625 89.421875 -37.90625 C 89.023438 -37.90625 88.828125 -38.097656 88.828125 -38.484375 L 88.828125 -39.078125 L 89.125 -39.078125 C 89.125 -39.078125 89.171875 -39.125 89.265625 -39.21875 C 89.367188 -39.320312 89.421875 -39.375 89.421875 -39.375 C 89.816406 -39.570312 90.410156 -39.671875 91.203125 -39.671875 C 91.984375 -39.671875 92.472656 -40.066406 92.671875 -40.859375 L 93.5625 -39.671875 L 93.859375 -41.453125 L 92.078125 -41.453125 C 91.097656 -41.453125 90.804688 -42.242188 91.203125 -43.828125 C 91.585938 -44.410156 91.585938 -45 91.203125 -45.59375 L 90.609375 -46.484375 L 90.3125 -47.671875 C 90.3125 -47.867188 90.609375 -48.265625 91.203125 -48.859375 C 91.785156 -49.453125 92.078125 -49.941406 92.078125 -50.328125 L 91.5 -53 L 90.609375 -55.96875 L 90.90625 -56.84375 L 91.203125 -56.84375 L 91.78125 -57.4375 L 91.78125 -58.328125 C 91.78125 -59.117188 91.488281 -59.910156 90.90625 -60.703125 L 92.375 -61.296875 C 92.769531 -61.296875 93.164062 -61.492188 93.5625 -61.890625 L 94.453125 -61.890625 L 94.75 -68.984375 L 94.453125 -68.984375 C 94.253906 -68.984375 93.5625 -69.28125 92.375 -69.875 C 92.96875 -70.863281 93.757812 -71.359375 94.75 -71.359375 L 97.125 -158.40625 Z M 21.3125 -170.546875 L 21.3125 -171.4375 L 23.09375 -171.4375 L 23.09375 -170.546875 Z M 47.375 -169.359375 L 47.375 -170.546875 L 48.859375 -170.546875 L 48.859375 -169.359375 Z M 14.21875 -166.40625 C 13.425781 -166.800781 12.4375 -167 11.25 -167 C 10.65625 -167.789062 10.851562 -168.773438 11.84375 -169.953125 L 13.625 -169.953125 L 15.390625 -168.765625 L 15.390625 -167.59375 Z M 41.453125 -169.0625 C 41.453125 -168.476562 41.351562 -168.1875 41.15625 -168.1875 L 40.5625 -168.1875 L 40.265625 -167.890625 L 39.078125 -168.1875 L 39.078125 -169.953125 L 41.453125 -169.953125 Z M -1.484375 -167.890625 L -1.484375 -168.765625 L 1.1875 -168.765625 L 1.1875 -167.890625 Z M 22.5 -168.1875 L 21.3125 -167.890625 C 20.914062 -167.492188 20.71875 -167.296875 20.71875 -167.296875 C 19.738281 -166.898438 19.546875 -166.40625 20.140625 -165.8125 C 19.347656 -165.21875 18.753906 -165.117188 18.359375 -165.515625 C 18.160156 -165.515625 17.863281 -165.613281 17.46875 -165.8125 C 17.070312 -166.007812 16.773438 -166.207031 16.578125 -166.40625 C 16.972656 -166.601562 17.566406 -167.097656 18.359375 -167.890625 C 18.953125 -168.472656 19.738281 -168.765625 20.71875 -168.765625 L 21.3125 -168.765625 Z M 12.140625 -165.21875 L 12.140625 -166.40625 L 15.984375 -165.8125 Z M 23.09375 -161.078125 C 21.707031 -161.273438 20.960938 -161.617188 20.859375 -162.109375 C 20.765625 -162.597656 21.113281 -163.238281 21.90625 -164.03125 L 22.5 -164.03125 L 23.09375 -163.734375 L 24.28125 -163.734375 L 24.28125 -161.671875 Z M 46.1875 -163.140625 C 46.1875 -162.359375 45.890625 -161.671875 45.296875 -161.078125 C 44.515625 -161.671875 44.125 -162.257812 44.125 -162.84375 L 45 -162.84375 Z M 13.328125 -160.1875 L 13.328125 -161.375 L 15.09375 -161.375 L 15.09375 -160.1875 Z M 33.75 -159.890625 C 33.550781 -159.097656 32.566406 -158.800781 30.796875 -159 C 30.398438 -159 30.101562 -159.097656 29.90625 -159.296875 L 29.015625 -159.296875 C 28.617188 -159.492188 28.023438 -159.59375 27.234375 -159.59375 C 27.828125 -160.78125 28.617188 -161.375 29.609375 -161.375 C 30.003906 -161.375 31.382812 -161.175781 33.75 -160.78125 Z M 50.046875 -74.3125 L 49.453125 -74.609375 L 50.328125 -75.203125 L 50.921875 -75.796875 L 51.515625 -74.609375 L 50.046875 -74.015625 Z M 83.5 -72.25 C 83.101562 -71.851562 82.804688 -71.65625 82.609375 -71.65625 C 82.609375 -71.65625 82.554688 -71.601562 82.453125 -71.5 C 82.359375 -71.40625 82.3125 -71.359375 82.3125 -71.359375 L 81.71875 -71.65625 L 81.71875 -72.25 Z M 51.515625 -62.171875 C 51.515625 -61.585938 51.316406 -60.800781 50.921875 -59.8125 C 50.523438 -58.820312 50.132812 -58.226562 49.75 -58.03125 C 50.132812 -57.632812 50.328125 -57.140625 50.328125 -56.546875 C 50.140625 -56.347656 50.09375 -56.003906 50.1875 -55.515625 C 50.28125 -55.023438 50.328125 -54.679688 50.328125 -54.484375 C 50.328125 -54.085938 50.523438 -53.097656 50.921875 -51.515625 L 51.8125 -49.75 C 51.8125 -48.957031 51.316406 -48.265625 50.328125 -47.671875 L 50.921875 -47.375 C 50.921875 -46.582031 50.96875 -45.691406 51.0625 -44.703125 C 51.164062 -43.722656 51.117188 -42.835938 50.921875 -42.046875 C 50.523438 -40.859375 50.820312 -40.066406 51.8125 -39.671875 C 51.21875 -38.878906 50.628906 -38.484375 50.046875 -38.484375 C 50.628906 -37.898438 50.921875 -37.609375 50.921875 -37.609375 C 51.316406 -37.609375 51.515625 -37.410156 51.515625 -37.015625 L 51.21875 -36.71875 C 51.019531 -36.519531 50.722656 -36.421875 50.328125 -36.421875 L 48.265625 -36.71875 L 47.078125 -37.3125 C 46.679688 -37.3125 46.382812 -37.410156 46.1875 -37.609375 L 46.484375 -40.859375 L 47.078125 -47.375 C 47.472656 -48.957031 47.472656 -49.847656 47.078125 -50.046875 L 47.078125 -52.109375 C 47.867188 -53.097656 48.265625 -53.988281 48.265625 -54.78125 C 48.265625 -54.976562 47.96875 -55.375 47.375 -55.96875 C 46.976562 -56.15625 46.679688 -56.445312 46.484375 -56.84375 C 46.484375 -57.039062 46.679688 -57.335938 47.078125 -57.734375 L 47.96875 -58.625 C 47.570312 -59.019531 47.375 -59.414062 47.375 -59.8125 C 47.375 -60.207031 47.472656 -60.40625 47.671875 -60.40625 L 47.96875 -61.296875 C 47.769531 -61.691406 47.671875 -62.28125 47.671875 -63.0625 C 47.671875 -64.445312 48.460938 -66.320312 50.046875 -68.6875 C 50.046875 -67.507812 50.335938 -67.019531 50.921875 -67.21875 C 51.710938 -67.019531 52.109375 -66.625 52.109375 -66.03125 L 51.8125 -64.84375 Z M 94.15625 -56.546875 C 94.15625 -56.347656 94.054688 -56.25 93.859375 -56.25 C 93.859375 -56.25 93.859375 -56.148438 93.859375 -55.953125 C 93.859375 -55.765625 93.859375 -55.671875 93.859375 -55.671875 L 94.15625 -55.671875 Z M 88.234375 -45 C 88.234375 -44.601562 88.035156 -44.3125 87.640625 -44.125 L 86.453125 -44.40625 L 86.453125 -45.296875 C 86.648438 -45.097656 86.945312 -45 87.34375 -45 Z M 50.625 -23.09375 C 49.644531 -22.695312 49.351562 -22.203125 49.75 -21.609375 C 49.75 -20.828125 49.453125 -19.941406 48.859375 -18.953125 L 47.375 -18.65625 C 46.382812 -20.03125 45.890625 -20.914062 45.890625 -21.3125 C 45.492188 -21.507812 45.296875 -22.101562 45.296875 -23.09375 C 45.296875 -23.289062 45.492188 -23.390625 45.890625 -23.390625 C 46.285156 -23.390625 46.1875 -23.882812 45.59375 -24.875 C 45.789062 -25.070312 45.890625 -25.367188 45.890625 -25.765625 L 46.1875 -26.359375 L 46.484375 -29.90625 C 46.484375 -30.5 46.382812 -30.894531 46.1875 -31.09375 C 45.988281 -31.488281 45.890625 -31.976562 45.890625 -32.5625 C 45.691406 -32.757812 45.890625 -33.300781 46.484375 -34.1875 C 47.078125 -35.082031 47.671875 -35.726562 48.265625 -36.125 C 48.460938 -36.125 48.609375 -36.070312 48.703125 -35.96875 C 48.804688 -35.875 48.957031 -35.726562 49.15625 -35.53125 L 50.046875 -35.234375 Z M 50.625 -23.09375 "/></g></g></g><g fill="#ffa41b" fill-opacity="1"><g transform="translate(273.457209, 276.356737)"><g/></g></g></svg>