<svg xmlns="http://www.w3.org/2000/svg" xmlns:xlink="http://www.w3.org/1999/xlink" width="500" zoomAndPan="magnify" viewBox="0 0 375 374.999991" height="500" preserveAspectRatio="xMidYMid meet" version="1.0"><defs><g/><clipPath id="75348522ba"><path d="M 7 67.203125 L 367 67.203125 L 367 307 L 7 307 Z M 7 67.203125 " clip-rule="nonzero"/></clipPath></defs><path fill="#75c2f6" d="M 332.265625 109.148438 C 338.652344 110.8125 343.375 113 345.824219 115.625 C 363.402344 135.058594 378.707031 167.007812 360.167969 208.761719 C 341.625 250.429688 247.25 279.667969 205.53125 281.503906 C 163.898438 283.34375 101.363281 277.304688 101.363281 277.304688 C 101.363281 277.304688 85.183594 294.460938 75.910156 290.695312 C 74.25 289.996094 72.761719 288.507812 71.625 286.230469 L 71.363281 286.40625 C 67.691406 288.507812 61.128906 292.183594 56.84375 292.183594 C 55.96875 292.183594 55.183594 292.007812 54.308594 291.746094 C 48.972656 289.644531 48.535156 282.03125 48.449219 277.214844 C 48.449219 270.5625 49.234375 263.558594 50.109375 256.996094 C 50.808594 251.917969 51.683594 246.753906 52.558594 241.675781 C 45.125 236.425781 38.566406 229.773438 34.453125 221.542969 C 25.707031 204.035156 19.671875 184.164062 23.171875 164.46875 C 28.242188 136.285156 50.808594 117.988281 75.210938 105.910156 C 90.082031 98.554688 108.535156 94.179688 124.804688 91.117188 C 145.707031 87.265625 167.222656 85.074219 188.476562 83.851562 C 202.734375 83.0625 217.078125 82.710938 231.332031 82.886719 C 244.367188 83.0625 257.398438 83.675781 270.34375 84.902344 C 284.25 86.300781 311.101562 89.628906 322.296875 98.46875 C 325.96875 101.53125 329.292969 105.210938 332.265625 109.148438 Z M 332.265625 109.148438 " fill-opacity="1" fill-rule="evenodd"/><g clip-path="url(#75348522ba)"><path fill="#ff52a2" d="M 35.941406 248.066406 C 29.730469 242.464844 24.484375 235.988281 20.808594 228.546875 C 15.125 217.167969 10.664062 205 8.476562 192.480469 C 6.554688 181.539062 6.464844 170.335938 8.738281 159.394531 C 9.613281 155.277344 14.773438 156.328125 13.988281 160.445312 C 9.351562 182.941406 15.5625 206.050781 25.621094 226.183594 C 29.292969 233.449219 34.453125 239.75 40.664062 245.089844 L 41.800781 246.054688 L 41.539062 247.542969 C 41.101562 250.253906 40.664062 252.96875 40.3125 255.683594 C 39.4375 261.984375 38.566406 268.375 38.476562 274.765625 C 38.300781 285.007812 40.050781 297.171875 50.808594 301.375 C 54.746094 302.949219 52.820312 307.851562 48.886719 306.363281 C 44.949219 304.789062 41.625 302.339844 39.089844 298.925781 C 30.429688 287.371094 33.140625 268.289062 35.066406 254.894531 C 35.242188 252.617188 35.503906 250.34375 35.941406 248.066406 Z M 187.601562 68.355469 C 197.835938 67.746094 208.066406 67.480469 218.300781 67.394531 C 231.421875 67.304688 244.628906 67.570312 257.746094 68.355469 C 278.476562 69.671875 315.296875 73.171875 332.003906 86.390625 C 353.433594 103.371094 365.414062 136.722656 366.8125 163.421875 C 367.074219 167.621094 361.742188 167.882812 361.476562 163.683594 C 360.167969 138.558594 348.882812 106.609375 328.679688 90.589844 C 303.316406 70.457031 220.226562 71.859375 187.863281 73.695312 C 183.667969 73.960938 183.402344 68.621094 187.601562 68.355469 Z M 187.601562 68.355469 " fill-opacity="1" fill-rule="evenodd"/></g><path fill="#faf4d2" d="M 155.503906 264.875 C 155.503906 264.875 132.0625 263.996094 105.824219 257.957031 C 90.519531 268.988281 63.753906 287.542969 56.933594 287.542969 C 49.847656 287.542969 54.746094 256.46875 57.980469 239.488281 C 49.671875 234.0625 42.851562 227.410156 38.828125 219.441406 C 18.011719 177.777344 21.246094 137.949219 77.222656 110.109375 C 133.199219 82.273438 292.46875 80.960938 319.320312 102.234375 C 346.171875 123.589844 368.914062 202.8125 307.777344 234.324219 C 246.640625 265.835938 155.503906 264.875 155.503906 264.875 Z M 155.503906 264.875 " fill-opacity="1" fill-rule="evenodd"/><path fill="#ffa41b" d="M 328.328125 234.234375 C 336.027344 241.414062 363.316406 266.363281 368.914062 264.960938 C 375.386719 263.296875 377.222656 257.34375 372.410156 252.179688 C 367.511719 247.105469 334.015625 228.109375 331.304688 227.757812 C 324.742188 226.96875 324.132812 230.296875 328.328125 234.234375 Z M 27.019531 136.546875 C 27.019531 136.546875 3.140625 104.332031 -4.730469 102.058594 C -12.601562 99.78125 -14.4375 111.335938 0.34375 125.953125 C 15.125 140.574219 20.023438 143.550781 23.957031 143.550781 C 27.894531 143.550781 27.019531 136.546875 27.019531 136.546875 Z M 34.191406 123.589844 C 34.191406 123.589844 27.980469 84.464844 23.082031 76.324219 C 18.1875 68.183594 9.875 74.222656 8.738281 77.984375 C 7.601562 81.664062 24.921875 125.253906 29.820312 127.355469 C 34.628906 129.367188 34.191406 123.589844 34.191406 123.589844 Z M 343.636719 217.167969 C 356.667969 217.167969 396.113281 217.605469 398.039062 221.804688 C 400.3125 226.882812 398.476562 231.785156 396.375 233.625 C 394.539062 235.285156 349.757812 228.894531 339.175781 225.308594 C 332.878906 223.207031 336.902344 217.167969 343.636719 217.167969 Z M 343.636719 217.167969 " fill-opacity="1" fill-rule="evenodd"/><path stroke-linecap="butt" transform="matrix(1.697691, 0, 0, 1.697691, -213.132915, 96.996658)" fill="none" stroke-linejoin="miter" d="M 260.889821 24.621807 C 262.173734 24.550479 262.850204 23.830291 262.921533 22.456642 L 263.26437 10.238759 C 263.26437 9.606006 263.043481 9.067591 262.604006 8.628116 C 262.182937 8.18864 261.646823 7.967752 260.995663 7.967752 L 212.460066 8.945642 C 211.088718 9.01467 210.36623 9.737159 210.297202 11.108507 L 209.636838 27.445035 C 209.636838 28.167524 209.89224 28.747356 210.403044 29.186832 C 210.895441 29.610201 211.500583 29.750557 212.223072 29.610201 L 227.160641 26.786972 L 226.500277 49.931922 C 226.711962 49.773159 226.93285 49.773159 227.160641 49.931922 L 227.160641 50.141306 C 227.160641 50.212634 227.08241 50.247148 226.923647 50.247148 L 226.500277 50.037764 L 226.079209 63.33938 L 226.185051 63.33938 C 226.185051 63.33938 226.166644 63.355486 226.13213 63.39 C 226.095316 63.426815 226.079209 63.442921 226.079209 63.442921 L 225.63053 80.72973 L 225.63053 81.047257 C 225.63053 81.558061 225.842214 82.013643 226.263283 82.418605 C 226.702758 82.80746 227.213562 83.000737 227.793394 83.000737 L 242.493969 82.68321 C 243.867618 82.542854 244.553292 81.820366 244.553292 80.518045 L 244.659134 79.75414 L 244.553292 79.75414 C 244.341607 79.75414 244.120719 79.62989 243.892928 79.383692 C 243.681244 79.121387 243.575401 78.918906 243.575401 78.776249 L 243.892928 78.143496 C 244.120719 77.915705 244.235765 77.694817 244.235765 77.483132 C 244.235765 77.414105 244.120719 77.273749 243.892928 77.062064 C 243.681244 76.834273 243.575401 76.647899 243.575401 76.507542 C 243.575401 76.367186 243.681244 76.155502 243.892928 75.87479 C 243.892928 75.504342 243.858414 75.214426 243.787086 75.002741 C 243.718058 74.862385 243.681244 74.606983 243.681244 74.238836 C 243.681244 74.238836 243.752572 74.167507 243.892928 74.027151 C 243.980363 74.027151 244.042488 74.008744 244.077002 73.97423 C 244.113816 73.939716 244.166738 73.886795 244.235765 73.815467 C 243.936646 73.675111 243.787086 73.525551 243.787086 73.366787 C 243.64673 73.226431 243.575401 73.04926 243.575401 72.839877 C 244.017178 72.699521 244.235765 72.513146 244.235765 72.285355 C 244.235765 72.144999 244.051692 71.933314 243.681244 71.652602 C 243.681244 71.509945 243.902132 71.406404 244.341607 71.335075 C 244.764977 71.176312 244.868518 70.992238 244.659134 70.780554 L 244.341607 70.568869 C 244.129923 70.568869 243.945849 70.534355 243.787086 70.463027 C 243.787086 70.322671 243.867618 70.104083 244.024081 69.804964 L 244.235765 69.381595 L 244.235765 69.16991 L 243.892928 69.066369 C 243.752572 69.066369 243.64673 69.082475 243.575401 69.116989 C 243.506374 69.153804 243.435045 69.16991 243.366018 69.16991 C 243.223361 69.16991 243.154333 69.100883 243.154333 68.960526 L 243.154333 68.721231 L 243.260175 68.721231 C 243.260175 68.721231 243.276282 68.705124 243.313096 68.66831 C 243.34761 68.633796 243.366018 68.617689 243.366018 68.617689 C 243.506374 68.546361 243.724961 68.511847 244.024081 68.511847 C 244.307094 68.511847 244.481963 68.36919 244.553292 68.088478 L 244.868518 68.511847 L 244.97436 67.876793 L 244.341607 67.876793 C 243.971159 67.876793 243.867618 67.586877 244.024081 67.007046 C 244.166738 66.795361 244.166738 66.574473 244.024081 66.346682 L 243.787086 66.029155 L 243.681244 65.608087 C 243.681244 65.520652 243.796289 65.371092 244.024081 65.159407 C 244.235765 64.947723 244.341607 64.772853 244.341607 64.632497 L 244.129923 63.654606 L 243.787086 62.573174 L 243.892928 62.255647 L 244.024081 62.255647 L 244.235765 62.018652 L 244.235765 61.701125 C 244.235765 61.420413 244.120719 61.130497 243.892928 60.831378 L 244.44745 60.619693 C 244.587806 60.619693 244.728162 60.550666 244.868518 60.408009 L 245.213656 60.408009 L 245.317197 57.821775 L 245.213656 57.821775 C 245.142327 57.821775 244.886925 57.70903 244.44745 57.478938 C 244.659134 57.126897 244.94905 56.952027 245.317197 56.952027 L 246.161635 25.176329 Z M 218.504582 20.742457 L 218.504582 20.39962 L 219.137335 20.39962 L 219.137335 20.742457 Z M 228.005079 21.163525 L 228.005079 20.742457 L 228.5596 20.742457 L 228.5596 21.163525 Z M 215.918349 22.247258 C 215.619229 22.106902 215.257985 22.035574 214.836916 22.035574 C 214.606824 21.736454 214.678153 21.37521 215.0463 20.954141 L 215.681354 20.954141 L 216.339417 21.37521 L 216.339417 21.823889 Z M 225.842214 21.269367 C 225.842214 21.481052 225.8054 21.586894 225.736372 21.586894 L 225.524688 21.586894 L 225.418845 21.718047 L 224.995476 21.586894 L 224.995476 20.954141 L 225.842214 20.954141 Z M 210.19136 21.718047 L 210.19136 21.37521 L 211.14164 21.37521 L 211.14164 21.718047 Z M 218.92565 21.586894 L 218.504582 21.718047 C 218.364226 21.858403 218.292897 21.929731 218.292897 21.929731 C 217.92475 22.070087 217.853422 22.247258 218.081213 22.456642 C 217.782093 22.686734 217.563506 22.721248 217.42315 22.562484 C 217.351821 22.562484 217.236775 22.52797 217.078012 22.456642 C 216.937656 22.387614 216.831814 22.316286 216.762786 22.247258 C 216.921549 22.17593 217.140137 22.00106 217.42315 21.718047 C 217.632534 21.490256 217.92475 21.37521 218.292897 21.37521 L 218.504582 21.37521 Z M 215.152142 22.668327 L 215.152142 22.247258 L 216.551101 22.456642 Z M 219.137335 24.198438 C 218.644938 24.12941 218.380332 24.005161 218.345819 23.830291 C 218.311305 23.637014 218.433254 23.400019 218.716267 23.117006 L 218.92565 23.117006 L 219.137335 23.222848 L 219.586014 23.222848 L 219.586014 23.989054 Z M 227.584011 23.434533 C 227.584011 23.715245 227.478168 23.970647 227.266484 24.198438 C 226.967364 23.970647 226.817804 23.749759 226.817804 23.540375 L 227.160641 23.540375 Z M 215.575512 24.515965 L 215.575512 24.094897 L 216.233575 24.094897 L 216.233575 24.515965 Z M 223.044296 24.621807 C 222.972968 24.920927 222.611723 25.026769 221.960563 24.939334 C 221.820207 24.939334 221.714365 24.902519 221.645337 24.833492 L 221.3025 24.833492 C 221.162144 24.762163 220.95046 24.72765 220.667446 24.72765 C 220.879131 24.30428 221.169047 24.094897 221.539495 24.094897 C 221.679851 24.094897 222.181451 24.163924 223.044296 24.30428 Z M 228.980669 55.868294 L 228.771285 55.764753 L 229.086511 55.553068 L 229.325807 55.316074 L 229.53519 55.764753 L 228.980669 55.974137 Z M 241.200852 56.634501 C 241.060496 56.774857 240.954654 56.846185 240.883325 56.846185 C 240.883325 56.846185 240.867219 56.864592 240.832705 56.899106 C 240.79589 56.93362 240.779784 56.952027 240.779784 56.952027 L 240.540488 56.846185 L 240.540488 56.634501 Z M 229.53519 60.302166 C 229.53519 60.513851 229.456959 60.803767 229.298196 61.174215 C 229.157839 61.526255 229.017483 61.73794 228.877127 61.806968 C 229.017483 61.947324 229.086511 62.133698 229.086511 62.361489 C 229.017483 62.432818 228.999076 62.554766 229.03359 62.731937 C 229.070405 62.906807 229.086511 63.031057 229.086511 63.100084 C 229.086511 63.258848 229.167043 63.620092 229.325807 64.183817 L 229.641033 64.84188 C 229.641033 65.124894 229.456959 65.380296 229.086511 65.608087 L 229.325807 65.713929 C 229.325807 65.994641 229.341913 66.321372 229.378728 66.689519 C 229.413242 67.04156 229.394834 67.359086 229.325807 67.639799 C 229.167043 68.079274 229.272885 68.36919 229.641033 68.511847 C 229.429348 68.810967 229.210761 68.960526 228.980669 68.960526 C 229.210761 69.16991 229.325807 69.275752 229.325807 69.275752 C 229.466163 69.275752 229.53519 69.347081 229.53519 69.487437 L 229.429348 69.593279 C 229.36032 69.662307 229.245274 69.699122 229.086511 69.699122 L 228.347916 69.593279 L 227.899236 69.381595 C 227.75888 69.381595 227.653038 69.347081 227.584011 69.275752 L 227.687552 68.088478 L 227.899236 65.713929 C 228.039593 65.131796 228.039593 64.807367 227.899236 64.736038 L 227.899236 63.972133 C 228.198356 63.620092 228.347916 63.293362 228.347916 62.994242 C 228.347916 62.925215 228.23287 62.784858 228.005079 62.573174 C 227.864723 62.501845 227.75888 62.396003 227.687552 62.255647 C 227.687552 62.168212 227.75888 62.053166 227.899236 61.91281 L 228.242074 61.595283 C 228.08331 61.454927 228.005079 61.314571 228.005079 61.174215 C 228.005079 61.015451 228.039593 60.93722 228.110921 60.93722 L 228.242074 60.619693 C 228.154639 60.479337 228.110921 60.267652 228.110921 59.98694 C 228.110921 59.476136 228.400837 58.790462 228.980669 57.927617 C 228.980669 58.350987 229.095715 58.525856 229.325807 58.456829 C 229.606519 58.525856 229.746875 58.675416 229.746875 58.905508 L 229.641033 59.326576 Z M 245.107814 62.361489 C 245.107814 62.432818 245.064096 62.467332 244.97436 62.467332 C 244.97436 62.467332 244.97436 62.501845 244.97436 62.573174 C 244.97436 62.642201 244.97436 62.679016 244.97436 62.679016 L 245.107814 62.679016 Z M 242.942648 66.558366 C 242.942648 66.71713 242.864417 66.829875 242.705654 66.901203 L 242.282284 66.795361 L 242.282284 66.452524 C 242.353613 66.523853 242.459455 66.558366 242.599811 66.558366 Z M 229.192353 74.581673 C 228.840313 74.722029 228.73447 74.896899 228.877127 75.108583 C 228.877127 75.389296 228.771285 75.716026 228.5596 76.086474 L 228.005079 76.190016 C 227.653038 75.681512 227.478168 75.354782 227.478168 75.214426 C 227.335511 75.143097 227.266484 74.933714 227.266484 74.581673 C 227.266484 74.494238 227.335511 74.448219 227.478168 74.448219 C 227.618524 74.448219 227.584011 74.27335 227.372326 73.921309 C 227.441354 73.84998 227.478168 73.746439 227.478168 73.603782 L 227.584011 73.366787 L 227.687552 72.073671 C 227.687552 71.861986 227.653038 71.72163 227.584011 71.652602 C 227.512682 71.509945 227.478168 71.325872 227.478168 71.098081 C 227.40684 71.026752 227.478168 70.833475 227.687552 70.515948 C 227.899236 70.182315 228.120125 69.94532 228.347916 69.804964 C 228.419244 69.804964 228.472165 69.82107 228.506679 69.857885 C 228.541193 69.892399 228.594114 69.94532 228.665443 70.014348 L 228.980669 70.147801 Z M 229.192353 74.581673 " stroke="#e0feca" stroke-width="14.864162" stroke-opacity="1" stroke-miterlimit="4"/><g fill="#ffa41b" fill-opacity="1"><g transform="translate(144.602377, 237.904998)"><g><path d="M 85.15625 -99.09375 C 87.351562 -99.21875 88.515625 -100.441406 88.640625 -102.765625 L 89.1875 -123.5 C 89.1875 -124.601562 88.816406 -125.519531 88.078125 -126.25 C 87.347656 -126.988281 86.429688 -127.359375 85.328125 -127.359375 L 2.9375 -125.703125 C 0.613281 -125.585938 -0.609375 -124.363281 -0.734375 -122.03125 L -1.828125 -94.328125 C -1.828125 -93.097656 -1.398438 -92.117188 -0.546875 -91.390625 C 0.304688 -90.660156 1.34375 -90.414062 2.5625 -90.65625 L 27.890625 -95.421875 L 26.796875 -56.15625 C 27.160156 -56.394531 27.523438 -56.394531 27.890625 -56.15625 L 27.890625 -55.78125 C 27.890625 -55.664062 27.769531 -55.609375 27.53125 -55.609375 L 26.796875 -55.96875 L 26.0625 -33.40625 L 26.25 -33.40625 C 26.25 -33.40625 26.21875 -33.375 26.15625 -33.3125 C 26.09375 -33.25 26.0625 -33.21875 26.0625 -33.21875 L 25.328125 -3.859375 L 25.328125 -3.296875 C 25.328125 -2.441406 25.691406 -1.675781 26.421875 -1 C 27.160156 -0.332031 28.019531 0 29 0 L 53.953125 -0.546875 C 56.273438 -0.796875 57.4375 -2.019531 57.4375 -4.21875 L 57.625 -5.5 L 57.4375 -5.5 C 57.070312 -5.5 56.703125 -5.710938 56.328125 -6.140625 C 55.960938 -6.578125 55.78125 -6.914062 55.78125 -7.15625 L 56.34375 -8.265625 C 56.707031 -8.628906 56.890625 -8.992188 56.890625 -9.359375 C 56.890625 -9.484375 56.707031 -9.726562 56.34375 -10.09375 C 55.96875 -10.457031 55.78125 -10.765625 55.78125 -11.015625 C 55.78125 -11.253906 55.96875 -11.617188 56.34375 -12.109375 C 56.34375 -12.722656 56.28125 -13.210938 56.15625 -13.578125 C 56.03125 -13.828125 55.96875 -14.253906 55.96875 -14.859375 C 55.96875 -14.859375 56.09375 -14.984375 56.34375 -15.234375 C 56.457031 -15.234375 56.546875 -15.265625 56.609375 -15.328125 C 56.671875 -15.390625 56.765625 -15.476562 56.890625 -15.59375 C 56.398438 -15.84375 56.15625 -16.085938 56.15625 -16.328125 C 55.90625 -16.578125 55.78125 -16.882812 55.78125 -17.25 C 56.519531 -17.5 56.890625 -17.804688 56.890625 -18.171875 C 56.890625 -18.410156 56.582031 -18.773438 55.96875 -19.265625 C 55.96875 -19.515625 56.335938 -19.695312 57.078125 -19.8125 C 57.804688 -20.0625 57.988281 -20.367188 57.625 -20.734375 L 57.078125 -21.109375 C 56.703125 -21.109375 56.394531 -21.164062 56.15625 -21.28125 C 56.15625 -21.53125 56.273438 -21.898438 56.515625 -22.390625 L 56.890625 -23.125 L 56.890625 -23.484375 L 56.34375 -23.671875 C 56.09375 -23.671875 55.90625 -23.640625 55.78125 -23.578125 C 55.664062 -23.515625 55.546875 -23.484375 55.421875 -23.484375 C 55.171875 -23.484375 55.046875 -23.609375 55.046875 -23.859375 L 55.046875 -24.21875 L 55.234375 -24.21875 C 55.234375 -24.21875 55.265625 -24.25 55.328125 -24.3125 C 55.390625 -24.375 55.421875 -24.40625 55.421875 -24.40625 C 55.660156 -24.53125 56.023438 -24.59375 56.515625 -24.59375 C 57.003906 -24.59375 57.3125 -24.835938 57.4375 -25.328125 L 57.984375 -24.59375 L 58.171875 -25.6875 L 57.078125 -25.6875 C 56.460938 -25.6875 56.273438 -26.175781 56.515625 -27.15625 C 56.765625 -27.519531 56.765625 -27.890625 56.515625 -28.265625 L 56.15625 -28.8125 L 55.96875 -29.546875 C 55.96875 -29.671875 56.148438 -29.914062 56.515625 -30.28125 C 56.890625 -30.644531 57.078125 -30.953125 57.078125 -31.203125 L 56.703125 -32.84375 L 56.15625 -34.6875 L 56.34375 -35.234375 L 56.515625 -35.234375 L 56.890625 -35.609375 L 56.890625 -36.15625 C 56.890625 -36.644531 56.707031 -37.132812 56.34375 -37.625 L 57.25 -37.984375 C 57.5 -37.984375 57.742188 -38.109375 57.984375 -38.359375 L 58.546875 -38.359375 L 58.71875 -42.765625 L 58.546875 -42.765625 C 58.421875 -42.765625 57.988281 -42.945312 57.25 -43.3125 C 57.625 -43.925781 58.113281 -44.234375 58.71875 -44.234375 L 60.1875 -98.1875 Z M 13.21875 -105.703125 L 13.21875 -106.25 L 14.3125 -106.25 L 14.3125 -105.703125 Z M 29.359375 -104.96875 L 29.359375 -105.703125 L 30.28125 -105.703125 L 30.28125 -104.96875 Z M 8.8125 -103.140625 C 8.320312 -103.378906 7.707031 -103.5 6.96875 -103.5 C 6.601562 -103.988281 6.726562 -104.601562 7.34375 -105.34375 L 8.4375 -105.34375 L 9.546875 -104.609375 L 9.546875 -103.875 Z M 25.6875 -104.78125 C 25.6875 -104.414062 25.628906 -104.234375 25.515625 -104.234375 L 25.140625 -104.234375 L 24.953125 -104.046875 L 24.21875 -104.234375 L 24.21875 -105.34375 L 25.6875 -105.34375 Z M -0.921875 -104.046875 L -0.921875 -104.609375 L 0.734375 -104.609375 L 0.734375 -104.046875 Z M 13.953125 -104.234375 L 13.21875 -104.046875 C 12.96875 -103.804688 12.84375 -103.6875 12.84375 -103.6875 C 12.226562 -103.4375 12.109375 -103.128906 12.484375 -102.765625 C 11.992188 -102.398438 11.625 -102.335938 11.375 -102.578125 C 11.25 -102.578125 11.0625 -102.640625 10.8125 -102.765625 C 10.570312 -102.890625 10.394531 -103.015625 10.28125 -103.140625 C 10.519531 -103.253906 10.882812 -103.554688 11.375 -104.046875 C 11.738281 -104.421875 12.226562 -104.609375 12.84375 -104.609375 L 13.21875 -104.609375 Z M 7.53125 -102.40625 L 7.53125 -103.140625 L 9.90625 -102.765625 Z M 14.3125 -99.828125 C 13.457031 -99.953125 13 -100.164062 12.9375 -100.46875 C 12.875 -100.78125 13.085938 -101.179688 13.578125 -101.671875 L 13.953125 -101.671875 L 14.3125 -101.484375 L 15.046875 -101.484375 L 15.046875 -100.203125 Z M 28.625 -101.109375 C 28.625 -100.628906 28.441406 -100.203125 28.078125 -99.828125 C 27.585938 -100.203125 27.34375 -100.570312 27.34375 -100.9375 L 27.890625 -100.9375 Z M 8.265625 -99.28125 L 8.265625 -100.015625 L 9.359375 -100.015625 L 9.359375 -99.28125 Z M 20.921875 -99.09375 C 20.796875 -98.601562 20.179688 -98.421875 19.078125 -98.546875 C 18.835938 -98.546875 18.65625 -98.609375 18.53125 -98.734375 L 17.984375 -98.734375 C 17.742188 -98.859375 17.378906 -98.921875 16.890625 -98.921875 C 17.253906 -99.648438 17.738281 -100.015625 18.34375 -100.015625 C 18.59375 -100.015625 19.453125 -99.894531 20.921875 -99.65625 Z M 31.015625 -46.0625 L 30.640625 -46.25 L 31.203125 -46.609375 L 31.5625 -46.984375 L 31.9375 -46.25 L 31.015625 -45.875 Z M 51.75 -44.78125 C 51.507812 -44.53125 51.328125 -44.40625 51.203125 -44.40625 C 51.203125 -44.40625 51.171875 -44.375 51.109375 -44.3125 C 51.046875 -44.257812 51.015625 -44.234375 51.015625 -44.234375 L 50.65625 -44.40625 L 50.65625 -44.78125 Z M 31.9375 -38.53125 C 31.9375 -38.164062 31.8125 -37.675781 31.5625 -37.0625 C 31.320312 -36.457031 31.078125 -36.09375 30.828125 -35.96875 C 31.078125 -35.726562 31.203125 -35.421875 31.203125 -35.046875 C 31.078125 -34.929688 31.046875 -34.71875 31.109375 -34.40625 C 31.171875 -34.101562 31.203125 -33.890625 31.203125 -33.765625 C 31.203125 -33.523438 31.320312 -32.914062 31.5625 -31.9375 L 32.109375 -30.828125 C 32.109375 -30.335938 31.804688 -29.910156 31.203125 -29.546875 L 31.5625 -29.359375 C 31.5625 -28.867188 31.59375 -28.316406 31.65625 -27.703125 C 31.71875 -27.097656 31.6875 -26.550781 31.5625 -26.0625 C 31.320312 -25.320312 31.503906 -24.832031 32.109375 -24.59375 C 31.742188 -24.101562 31.378906 -23.859375 31.015625 -23.859375 C 31.378906 -23.492188 31.5625 -23.3125 31.5625 -23.3125 C 31.8125 -23.3125 31.9375 -23.1875 31.9375 -22.9375 L 31.75 -22.75 C 31.625 -22.632812 31.441406 -22.578125 31.203125 -22.578125 L 29.90625 -22.75 L 29.171875 -23.125 C 28.929688 -23.125 28.75 -23.1875 28.625 -23.3125 L 28.8125 -25.328125 L 29.171875 -29.359375 C 29.421875 -30.335938 29.421875 -30.890625 29.171875 -31.015625 L 29.171875 -32.296875 C 29.660156 -32.910156 29.90625 -33.460938 29.90625 -33.953125 C 29.90625 -34.078125 29.722656 -34.320312 29.359375 -34.6875 C 29.117188 -34.8125 28.9375 -34.992188 28.8125 -35.234375 C 28.8125 -35.359375 28.929688 -35.539062 29.171875 -35.78125 L 29.734375 -36.34375 C 29.484375 -36.582031 29.359375 -36.820312 29.359375 -37.0625 C 29.359375 -37.3125 29.421875 -37.4375 29.546875 -37.4375 L 29.734375 -37.984375 C 29.609375 -38.234375 29.546875 -38.601562 29.546875 -39.09375 C 29.546875 -39.945312 30.035156 -41.109375 31.015625 -42.578125 C 31.015625 -41.835938 31.195312 -41.53125 31.5625 -41.65625 C 32.050781 -41.53125 32.296875 -41.285156 32.296875 -40.921875 L 32.109375 -40.1875 Z M 58.359375 -35.046875 C 58.359375 -34.929688 58.296875 -34.875 58.171875 -34.875 C 58.171875 -34.875 58.171875 -34.8125 58.171875 -34.6875 C 58.171875 -34.5625 58.171875 -34.5 58.171875 -34.5 L 58.359375 -34.5 Z M 54.6875 -27.890625 C 54.6875 -27.648438 54.566406 -27.46875 54.328125 -27.34375 L 53.59375 -27.53125 L 53.59375 -28.078125 C 53.707031 -27.953125 53.890625 -27.890625 54.140625 -27.890625 Z M 31.375 -14.3125 C 30.769531 -14.070312 30.585938 -13.765625 30.828125 -13.390625 C 30.828125 -12.898438 30.644531 -12.351562 30.28125 -11.75 L 29.359375 -11.5625 C 28.742188 -12.414062 28.4375 -12.96875 28.4375 -13.21875 C 28.195312 -13.332031 28.078125 -13.695312 28.078125 -14.3125 C 28.078125 -14.4375 28.195312 -14.5 28.4375 -14.5 C 28.6875 -14.5 28.628906 -14.804688 28.265625 -15.421875 C 28.378906 -15.535156 28.4375 -15.71875 28.4375 -15.96875 L 28.625 -16.328125 L 28.8125 -18.53125 C 28.8125 -18.894531 28.75 -19.140625 28.625 -19.265625 C 28.5 -19.515625 28.4375 -19.820312 28.4375 -20.1875 C 28.320312 -20.3125 28.445312 -20.644531 28.8125 -21.1875 C 29.175781 -21.738281 29.539062 -22.140625 29.90625 -22.390625 C 30.03125 -22.390625 30.125 -22.359375 30.1875 -22.296875 C 30.25 -22.234375 30.34375 -22.140625 30.46875 -22.015625 L 31.015625 -21.84375 Z M 31.375 -14.3125 "/></g></g></g><g fill="#ffa41b" fill-opacity="1"><g transform="translate(237.657056, 237.904998)"><g/></g></g></svg>